<?xml version="1.0" encoding="utf-8"?>
<!-- Generator: Adobe Illustrator 18.0.0, SVG Export Plug-In . SVG Version: 6.00 Build 0)  -->
<!DOCTYPE svg PUBLIC "-//W3C//DTD SVG 1.1//EN" "http://www.w3.org/Graphics/SVG/1.1/DTD/svg11.dtd">
<svg version="1.1" id="Layer_1" xmlns="http://www.w3.org/2000/svg" xmlns:xlink="http://www.w3.org/1999/xlink" x="0px" y="0px"
	 viewBox="0 0 500 500" enable-background="new 0 0 500 500" xml:space="preserve">
<g display="none">
	<path display="inline" d="M259,73.2c-97.1,0-176.1,79-176.1,176.1c0,97.1,79,176.1,176.1,176.1c97.1,0,176-79,176-176.1
		C435,152.2,356.1,73.2,259,73.2z M259,404.1c-85.4,0-154.9-69.5-154.9-154.9c0-12.4,1.5-24.4,4.2-35.9
		c12.1-3.9,36.6-18.8,85.3-58.9l22.4-22.4c0,0,58.3,112.9,191.6,73.7c4.1,13.8,6.3,28.4,6.3,43.5C413.8,334.7,344.4,404.1,259,404.1
		z"/>
	<path display="inline" d="M227.8,256.3c0-14-11.3-25.3-25.3-25.3c-14,0-25.3,11.3-25.3,25.3c0,14,11.3,25.3,25.3,25.3
		C216.5,281.7,227.8,270.3,227.8,256.3z"/>
	<path display="inline" d="M315.5,231c-14,0-25.3,11.3-25.3,25.3c0,14,11.3,25.3,25.3,25.3c14,0,25.3-11.3,25.3-25.3
		C340.8,242.4,329.5,231,315.5,231z"/>
	<path display="inline" d="M262,333.5c-30.4,0-54.2,14.7-54.2,33.6c0,3.9,3.2,7.1,7.1,7.1s7.1-3.2,7.1-7.1c0-9.2,16.4-19.4,40-19.4
		c23.6,0,40,10.2,40,19.4c0,3.9,3.2,7.1,7.1,7.1c3.9,0,7.1-3.2,7.1-7.1C316.1,348.2,292.3,333.5,262,333.5z"/>
	<path display="inline" d="M208.1,211.4c3.8,1,7.6-1.3,8.6-5.1c1-3.8-1.3-7.6-5.1-8.6c-28.9-7.4-57.9,7.8-64.6,33.9
		c-1,3.8,1.3,7.6,5.1,8.6c0.6,0.2,1.2,0.2,1.8,0.2c3.1,0,6-2.1,6.8-5.3C165.5,216.5,186.7,205.9,208.1,211.4z"/>
</g>
<g display="none">
	<path display="inline" d="M259,75.1c-97.1,0-176.1,79-176.1,176.1c0,97.1,79,176.1,176.1,176.1c97.1,0,176.1-79,176.1-176.1
		C435,154.1,356.1,75.1,259,75.1z M259,406c-85.4,0-154.9-69.5-154.9-154.9c0-12.4,1.5-24.4,4.2-35.9c12.1-3.9,36.6-18.8,85.3-58.9
		L216,134c0,0,58.3,112.9,191.6,73.7c4,13.8,6.3,28.4,6.3,43.5C413.9,336.6,344.4,406,259,406z"/>
	<path display="inline" d="M227.8,262.6c0-14-11.3-25.3-25.3-25.3c-14,0-25.3,11.3-25.3,25.3c0,14,11.3,25.3,25.3,25.3
		C216.5,287.9,227.8,276.6,227.8,262.6z"/>
	<path display="inline" d="M315.5,237.3c-14,0-25.3,11.3-25.3,25.3c0,14,11.3,25.3,25.3,25.3c14,0,25.3-11.3,25.3-25.3
		C340.8,248.6,329.5,237.3,315.5,237.3z"/>
	<path display="inline" d="M307.9,336.5H216c-3.9,0-7.1,2.4-7.1,6.3c0,3.9,3.2,6.3,7.1,6.3h91.9c3.9,0,7.1-2.4,7.1-6.3
		C314.9,338.9,311.8,336.5,307.9,336.5z"/>
</g>
<g>
	<path d="M250,73.9c-97.1,0-176.1,79-176.1,176.1c0,97.1,79,176.1,176.1,176.1c97.1,0,176.1-79,176.1-176.1
		C426.1,152.9,347.1,73.9,250,73.9z M250,404.9c-85.2,0-154.6-69.2-154.8-154.4c10.2-1.3,34.3-14.4,89.5-59.9l22.4-22.4
		c0,0,25.5,49.3,81.2,71.5c-4.3,4.5-7,10.6-7,17.4c0,14,11.3,25.3,25.3,25.3c14,0,25.3-11.3,25.3-25.3c0-2.6-0.5-5.1-1.3-7.5
		c21.6,1.9,46.2-0.5,73.9-9.5c0.2,3.3,0.3,6.6,0.3,9.9C404.9,335.4,335.4,404.9,250,404.9z"/>
	<path d="M218.8,257.1c0-14-11.3-25.3-25.3-25.3c-14,0-25.3,11.3-25.3,25.3c0,14,11.3,25.3,25.3,25.3
		C207.5,282.4,218.8,271,218.8,257.1z"/>
	<path d="M252.9,374c26,0,47.1-26,47.1-47.1h-94.2C205.8,348,226.9,374,252.9,374z"/>
</g>
</svg>
